<mxfile host="Electron" agent="Mozilla/5.0 (Windows NT 10.0; Win64; x64) AppleWebKit/537.36 (KHTML, like Gecko) draw.io/27.0.5 Chrome/134.0.6998.205 Electron/35.3.0 Safari/537.36" version="27.0.5">
  <diagram name="第 1 页" id="YNhIiwLjl9n3v9QRQHAf">
    <mxGraphModel dx="1426" dy="849" grid="1" gridSize="10" guides="1" tooltips="1" connect="1" arrows="1" fold="1" page="1" pageScale="1" pageWidth="827" pageHeight="1169" math="0" shadow="0">
      <root>
        <mxCell id="0" />
        <mxCell id="1" parent="0" />
        <mxCell id="DlfPbESAJfoZUQ2CKoHn-1" value="feature-service" style="rounded=0;whiteSpace=wrap;html=1;" parent="1" vertex="1">
          <mxGeometry x="570" y="335" width="100" height="50" as="geometry" />
        </mxCell>
        <mxCell id="DlfPbESAJfoZUQ2CKoHn-27" style="edgeStyle=orthogonalEdgeStyle;rounded=0;orthogonalLoop=1;jettySize=auto;html=1;" parent="1" source="DlfPbESAJfoZUQ2CKoHn-2" target="DlfPbESAJfoZUQ2CKoHn-25" edge="1">
          <mxGeometry relative="1" as="geometry">
            <Array as="points">
              <mxPoint x="253" y="290" />
              <mxPoint x="200" y="290" />
            </Array>
          </mxGeometry>
        </mxCell>
        <mxCell id="DlfPbESAJfoZUQ2CKoHn-35" style="edgeStyle=orthogonalEdgeStyle;rounded=0;orthogonalLoop=1;jettySize=auto;html=1;" parent="1" source="DlfPbESAJfoZUQ2CKoHn-2" target="DlfPbESAJfoZUQ2CKoHn-33" edge="1">
          <mxGeometry relative="1" as="geometry" />
        </mxCell>
        <mxCell id="DlfPbESAJfoZUQ2CKoHn-2" value="post-service" style="rounded=1;whiteSpace=wrap;html=1;arcSize=50;" parent="1" vertex="1">
          <mxGeometry x="203" y="220" width="100" height="40" as="geometry" />
        </mxCell>
        <mxCell id="DlfPbESAJfoZUQ2CKoHn-5" value="" style="edgeStyle=orthogonalEdgeStyle;rounded=0;orthogonalLoop=1;jettySize=auto;html=1;" parent="1" source="DlfPbESAJfoZUQ2CKoHn-2" target="DlfPbESAJfoZUQ2CKoHn-4" edge="1">
          <mxGeometry relative="1" as="geometry">
            <mxPoint x="410" y="290" as="sourcePoint" />
            <mxPoint x="410" y="410" as="targetPoint" />
          </mxGeometry>
        </mxCell>
        <mxCell id="DlfPbESAJfoZUQ2CKoHn-19" style="edgeStyle=orthogonalEdgeStyle;rounded=0;orthogonalLoop=1;jettySize=auto;html=1;" parent="1" source="DlfPbESAJfoZUQ2CKoHn-4" target="DlfPbESAJfoZUQ2CKoHn-17" edge="1">
          <mxGeometry relative="1" as="geometry" />
        </mxCell>
        <mxCell id="DlfPbESAJfoZUQ2CKoHn-4" value="kafka日志：&lt;br&gt;点赞，收藏，转发&lt;br&gt;（显性行为）" style="text;html=1;align=center;verticalAlign=middle;resizable=0;points=[];autosize=1;strokeColor=none;fillColor=none;" parent="1" vertex="1">
          <mxGeometry x="260" y="320" width="120" height="60" as="geometry" />
        </mxCell>
        <mxCell id="DlfPbESAJfoZUQ2CKoHn-65" style="edgeStyle=orthogonalEdgeStyle;rounded=0;orthogonalLoop=1;jettySize=auto;html=1;entryX=0;entryY=0.5;entryDx=0;entryDy=0;" parent="1" source="DlfPbESAJfoZUQ2CKoHn-66" target="DlfPbESAJfoZUQ2CKoHn-54" edge="1">
          <mxGeometry relative="1" as="geometry" />
        </mxCell>
        <mxCell id="Lxm-kY-Rxsiu6XCb0hfM-5" style="edgeStyle=orthogonalEdgeStyle;rounded=0;orthogonalLoop=1;jettySize=auto;html=1;entryX=0;entryY=0.5;entryDx=0;entryDy=0;" edge="1" parent="1" source="DlfPbESAJfoZUQ2CKoHn-11" target="-K61Xz11RYhruXV_-d4R-2">
          <mxGeometry relative="1" as="geometry" />
        </mxCell>
        <mxCell id="DlfPbESAJfoZUQ2CKoHn-11" value="&lt;font style=&quot;font-size: 10px;&quot;&gt;日志存入Hadoop 30days&lt;/font&gt;" style="shape=parallelogram;perimeter=parallelogramPerimeter;whiteSpace=wrap;html=1;fixedSize=1;" parent="1" vertex="1">
          <mxGeometry x="292.5" y="705" width="131" height="30" as="geometry" />
        </mxCell>
        <mxCell id="DlfPbESAJfoZUQ2CKoHn-20" value="" style="edgeStyle=orthogonalEdgeStyle;rounded=0;orthogonalLoop=1;jettySize=auto;html=1;" parent="1" source="Lxm-kY-Rxsiu6XCb0hfM-2" target="DlfPbESAJfoZUQ2CKoHn-11" edge="1">
          <mxGeometry relative="1" as="geometry" />
        </mxCell>
        <mxCell id="DlfPbESAJfoZUQ2CKoHn-17" value="logging-service" style="rounded=1;whiteSpace=wrap;html=1;arcSize=50;" parent="1" vertex="1">
          <mxGeometry x="303" y="420" width="110" height="40" as="geometry" />
        </mxCell>
        <mxCell id="DlfPbESAJfoZUQ2CKoHn-23" value="" style="edgeStyle=orthogonalEdgeStyle;rounded=0;orthogonalLoop=1;jettySize=auto;html=1;" parent="1" source="DlfPbESAJfoZUQ2CKoHn-21" target="DlfPbESAJfoZUQ2CKoHn-22" edge="1">
          <mxGeometry relative="1" as="geometry" />
        </mxCell>
        <mxCell id="DlfPbESAJfoZUQ2CKoHn-21" value="前端App" style="rounded=1;whiteSpace=wrap;html=1;arcSize=50;" parent="1" vertex="1">
          <mxGeometry x="420" y="170" width="100" height="40" as="geometry" />
        </mxCell>
        <mxCell id="DlfPbESAJfoZUQ2CKoHn-24" style="edgeStyle=orthogonalEdgeStyle;rounded=0;orthogonalLoop=1;jettySize=auto;html=1;entryX=0.5;entryY=0;entryDx=0;entryDy=0;" parent="1" source="DlfPbESAJfoZUQ2CKoHn-22" target="DlfPbESAJfoZUQ2CKoHn-17" edge="1">
          <mxGeometry relative="1" as="geometry" />
        </mxCell>
        <mxCell id="DlfPbESAJfoZUQ2CKoHn-22" value="Http埋点：&lt;br&gt;点击事件，浏览时长事件" style="text;html=1;align=center;verticalAlign=middle;resizable=0;points=[];autosize=1;strokeColor=none;fillColor=none;" parent="1" vertex="1">
          <mxGeometry x="390" y="340" width="160" height="40" as="geometry" />
        </mxCell>
        <mxCell id="DlfPbESAJfoZUQ2CKoHn-29" style="edgeStyle=orthogonalEdgeStyle;rounded=0;orthogonalLoop=1;jettySize=auto;html=1;" parent="1" source="DlfPbESAJfoZUQ2CKoHn-25" target="DlfPbESAJfoZUQ2CKoHn-17" edge="1">
          <mxGeometry relative="1" as="geometry">
            <Array as="points">
              <mxPoint x="200" y="400" />
              <mxPoint x="358" y="400" />
            </Array>
          </mxGeometry>
        </mxCell>
        <mxCell id="DlfPbESAJfoZUQ2CKoHn-44" style="edgeStyle=orthogonalEdgeStyle;rounded=0;orthogonalLoop=1;jettySize=auto;html=1;entryX=0;entryY=0.5;entryDx=0;entryDy=0;" parent="1" source="DlfPbESAJfoZUQ2CKoHn-25" target="DlfPbESAJfoZUQ2CKoHn-26" edge="1">
          <mxGeometry relative="1" as="geometry">
            <Array as="points">
              <mxPoint x="200" y="480" />
            </Array>
          </mxGeometry>
        </mxCell>
        <mxCell id="DlfPbESAJfoZUQ2CKoHn-25" value="kafka日志：&lt;br&gt;评论（显性行为）" style="text;html=1;align=center;verticalAlign=middle;resizable=0;points=[];autosize=1;strokeColor=none;fillColor=none;" parent="1" vertex="1">
          <mxGeometry x="140" y="330" width="120" height="40" as="geometry" />
        </mxCell>
        <mxCell id="DlfPbESAJfoZUQ2CKoHn-52" value="" style="edgeStyle=orthogonalEdgeStyle;rounded=0;orthogonalLoop=1;jettySize=auto;html=1;" parent="1" source="DlfPbESAJfoZUQ2CKoHn-26" target="DlfPbESAJfoZUQ2CKoHn-50" edge="1">
          <mxGeometry relative="1" as="geometry" />
        </mxCell>
        <mxCell id="DlfPbESAJfoZUQ2CKoHn-26" value="nlp-service" style="rounded=1;whiteSpace=wrap;html=1;arcSize=50;" parent="1" vertex="1">
          <mxGeometry x="475" y="460" width="90" height="40" as="geometry" />
        </mxCell>
        <mxCell id="DlfPbESAJfoZUQ2CKoHn-48" style="edgeStyle=orthogonalEdgeStyle;rounded=0;orthogonalLoop=1;jettySize=auto;html=1;" parent="1" source="DlfPbESAJfoZUQ2CKoHn-30" target="DlfPbESAJfoZUQ2CKoHn-47" edge="1">
          <mxGeometry relative="1" as="geometry" />
        </mxCell>
        <mxCell id="DlfPbESAJfoZUQ2CKoHn-30" value="热门post" style="shape=parallelogram;perimeter=parallelogramPerimeter;whiteSpace=wrap;html=1;fixedSize=1;" parent="1" vertex="1">
          <mxGeometry x="465" y="615" width="90" height="30" as="geometry" />
        </mxCell>
        <mxCell id="DlfPbESAJfoZUQ2CKoHn-49" style="edgeStyle=orthogonalEdgeStyle;rounded=0;orthogonalLoop=1;jettySize=auto;html=1;entryX=0.5;entryY=0;entryDx=0;entryDy=0;" parent="1" source="DlfPbESAJfoZUQ2CKoHn-31" target="DlfPbESAJfoZUQ2CKoHn-47" edge="1">
          <mxGeometry relative="1" as="geometry" />
        </mxCell>
        <mxCell id="DlfPbESAJfoZUQ2CKoHn-31" value="活跃user" style="shape=parallelogram;perimeter=parallelogramPerimeter;whiteSpace=wrap;html=1;fixedSize=1;" parent="1" vertex="1">
          <mxGeometry x="565" y="615" width="90" height="30" as="geometry" />
        </mxCell>
        <mxCell id="DlfPbESAJfoZUQ2CKoHn-58" style="edgeStyle=orthogonalEdgeStyle;rounded=0;orthogonalLoop=1;jettySize=auto;html=1;" parent="1" source="DlfPbESAJfoZUQ2CKoHn-33" target="DlfPbESAJfoZUQ2CKoHn-63" edge="1">
          <mxGeometry relative="1" as="geometry">
            <mxPoint x="715" y="460" as="targetPoint" />
            <Array as="points">
              <mxPoint x="715" y="418" />
              <mxPoint x="750" y="418" />
              <mxPoint x="750" y="600" />
            </Array>
          </mxGeometry>
        </mxCell>
        <mxCell id="DlfPbESAJfoZUQ2CKoHn-33" value="post特征&lt;br&gt;（p-e;p-l）" style="shape=parallelogram;perimeter=parallelogramPerimeter;whiteSpace=wrap;html=1;fixedSize=1;" parent="1" vertex="1">
          <mxGeometry x="670" y="225" width="90" height="30" as="geometry" />
        </mxCell>
        <mxCell id="DlfPbESAJfoZUQ2CKoHn-46" value="" style="edgeStyle=orthogonalEdgeStyle;rounded=0;orthogonalLoop=1;jettySize=auto;html=1;" parent="1" source="DlfPbESAJfoZUQ2CKoHn-34" target="DlfPbESAJfoZUQ2CKoHn-38" edge="1">
          <mxGeometry relative="1" as="geometry" />
        </mxCell>
        <mxCell id="-K61Xz11RYhruXV_-d4R-4" style="edgeStyle=orthogonalEdgeStyle;rounded=0;orthogonalLoop=1;jettySize=auto;html=1;entryX=0.5;entryY=0;entryDx=0;entryDy=0;" edge="1" parent="1" source="DlfPbESAJfoZUQ2CKoHn-34" target="-K61Xz11RYhruXV_-d4R-3">
          <mxGeometry relative="1" as="geometry">
            <Array as="points">
              <mxPoint x="710" y="750" />
              <mxPoint x="570" y="750" />
            </Array>
          </mxGeometry>
        </mxCell>
        <mxCell id="-K61Xz11RYhruXV_-d4R-5" style="edgeStyle=orthogonalEdgeStyle;rounded=0;orthogonalLoop=1;jettySize=auto;html=1;entryX=0.5;entryY=0;entryDx=0;entryDy=0;" edge="1" parent="1" source="DlfPbESAJfoZUQ2CKoHn-34" target="-K61Xz11RYhruXV_-d4R-2">
          <mxGeometry relative="1" as="geometry">
            <Array as="points">
              <mxPoint x="710" y="750" />
              <mxPoint x="455" y="750" />
            </Array>
          </mxGeometry>
        </mxCell>
        <mxCell id="DlfPbESAJfoZUQ2CKoHn-34" value="user-特征" style="shape=parallelogram;perimeter=parallelogramPerimeter;whiteSpace=wrap;html=1;fixedSize=1;" parent="1" vertex="1">
          <mxGeometry x="665" y="655" width="90" height="30" as="geometry" />
        </mxCell>
        <mxCell id="DlfPbESAJfoZUQ2CKoHn-38" value="&lt;font style=&quot;font-size: 10px;&quot;&gt;关系结构存入neo4j&lt;/font&gt;" style="shape=parallelogram;perimeter=parallelogramPerimeter;whiteSpace=wrap;html=1;fixedSize=1;" parent="1" vertex="1">
          <mxGeometry x="645" y="780" width="130" height="30" as="geometry" />
        </mxCell>
        <mxCell id="DlfPbESAJfoZUQ2CKoHn-41" value="" style="edgeStyle=orthogonalEdgeStyle;rounded=0;orthogonalLoop=1;jettySize=auto;html=1;" parent="1" source="DlfPbESAJfoZUQ2CKoHn-17" target="DlfPbESAJfoZUQ2CKoHn-40" edge="1">
          <mxGeometry relative="1" as="geometry">
            <mxPoint x="358" y="460" as="sourcePoint" />
            <mxPoint x="361" y="570" as="targetPoint" />
          </mxGeometry>
        </mxCell>
        <mxCell id="DlfPbESAJfoZUQ2CKoHn-40" value="&lt;span style=&quot;color: rgb(255, 255, 255); font-family: Helvetica; font-size: 10px; font-style: normal; font-variant-ligatures: normal; font-variant-caps: normal; font-weight: 400; letter-spacing: normal; orphans: 2; text-indent: 0px; text-transform: none; widows: 2; word-spacing: 0px; -webkit-text-stroke-width: 0px; white-space: normal; background-color: rgb(27, 29, 30); text-decoration-thickness: initial; text-decoration-style: initial; text-decoration-color: initial; float: none; display: inline !important;&quot;&gt;数据量较大不适于&lt;br&gt;Redis内存&lt;/span&gt;" style="text;whiteSpace=wrap;html=1;align=center;" parent="1" vertex="1">
          <mxGeometry x="301" y="500" width="114" height="40" as="geometry" />
        </mxCell>
        <mxCell id="DlfPbESAJfoZUQ2CKoHn-47" value="&lt;font style=&quot;font-size: 10px;&quot;&gt;当日热门存入Redis&lt;/font&gt;" style="shape=parallelogram;perimeter=parallelogramPerimeter;whiteSpace=wrap;html=1;fixedSize=1;" parent="1" vertex="1">
          <mxGeometry x="500" y="705" width="120" height="30" as="geometry" />
        </mxCell>
        <mxCell id="DlfPbESAJfoZUQ2CKoHn-53" style="edgeStyle=orthogonalEdgeStyle;rounded=0;orthogonalLoop=1;jettySize=auto;html=1;entryX=0;entryY=0.5;entryDx=0;entryDy=0;" parent="1" source="DlfPbESAJfoZUQ2CKoHn-50" target="DlfPbESAJfoZUQ2CKoHn-1" edge="1">
          <mxGeometry relative="1" as="geometry">
            <Array as="points">
              <mxPoint x="550" y="360" />
            </Array>
          </mxGeometry>
        </mxCell>
        <mxCell id="DlfPbESAJfoZUQ2CKoHn-50" value="&lt;font style=&quot;font-size: 10px;&quot;&gt;评论态度，&lt;br&gt;为实体赋值权重&lt;/font&gt;" style="text;html=1;align=center;verticalAlign=middle;resizable=0;points=[];autosize=1;strokeColor=none;fillColor=none;" parent="1" vertex="1">
          <mxGeometry x="475" y="400" width="90" height="40" as="geometry" />
        </mxCell>
        <mxCell id="DlfPbESAJfoZUQ2CKoHn-59" style="edgeStyle=orthogonalEdgeStyle;rounded=0;orthogonalLoop=1;jettySize=auto;html=1;entryX=0.5;entryY=0;entryDx=0;entryDy=0;" parent="1" source="DlfPbESAJfoZUQ2CKoHn-63" target="DlfPbESAJfoZUQ2CKoHn-34" edge="1">
          <mxGeometry relative="1" as="geometry" />
        </mxCell>
        <mxCell id="DlfPbESAJfoZUQ2CKoHn-54" value="offline-calculate-service" style="whiteSpace=wrap;html=1;" parent="1" vertex="1">
          <mxGeometry x="590" y="490" width="140" height="30" as="geometry" />
        </mxCell>
        <mxCell id="DlfPbESAJfoZUQ2CKoHn-57" style="edgeStyle=orthogonalEdgeStyle;rounded=0;orthogonalLoop=1;jettySize=auto;html=1;entryX=0.217;entryY=-0.097;entryDx=0;entryDy=0;entryPerimeter=0;" parent="1" source="DlfPbESAJfoZUQ2CKoHn-1" target="DlfPbESAJfoZUQ2CKoHn-54" edge="1">
          <mxGeometry relative="1" as="geometry" />
        </mxCell>
        <mxCell id="DlfPbESAJfoZUQ2CKoHn-60" style="edgeStyle=orthogonalEdgeStyle;rounded=0;orthogonalLoop=1;jettySize=auto;html=1;entryX=0.624;entryY=0.03;entryDx=0;entryDy=0;entryPerimeter=0;" parent="1" source="DlfPbESAJfoZUQ2CKoHn-54" target="DlfPbESAJfoZUQ2CKoHn-31" edge="1">
          <mxGeometry relative="1" as="geometry" />
        </mxCell>
        <mxCell id="DlfPbESAJfoZUQ2CKoHn-61" style="edgeStyle=orthogonalEdgeStyle;rounded=0;orthogonalLoop=1;jettySize=auto;html=1;entryX=0.601;entryY=-0.062;entryDx=0;entryDy=0;entryPerimeter=0;" parent="1" source="DlfPbESAJfoZUQ2CKoHn-54" target="DlfPbESAJfoZUQ2CKoHn-30" edge="1">
          <mxGeometry relative="1" as="geometry">
            <Array as="points">
              <mxPoint x="660" y="550" />
              <mxPoint x="519" y="550" />
            </Array>
          </mxGeometry>
        </mxCell>
        <mxCell id="DlfPbESAJfoZUQ2CKoHn-62" style="edgeStyle=orthogonalEdgeStyle;rounded=0;orthogonalLoop=1;jettySize=auto;html=1;entryX=0.931;entryY=0.041;entryDx=0;entryDy=0;entryPerimeter=0;" parent="1" source="DlfPbESAJfoZUQ2CKoHn-33" target="DlfPbESAJfoZUQ2CKoHn-38" edge="1">
          <mxGeometry relative="1" as="geometry">
            <Array as="points">
              <mxPoint x="790" y="240" />
              <mxPoint x="790" y="671" />
            </Array>
          </mxGeometry>
        </mxCell>
        <mxCell id="DlfPbESAJfoZUQ2CKoHn-64" value="" style="edgeStyle=orthogonalEdgeStyle;rounded=0;orthogonalLoop=1;jettySize=auto;html=1;entryX=0.5;entryY=0;entryDx=0;entryDy=0;" parent="1" source="DlfPbESAJfoZUQ2CKoHn-54" target="DlfPbESAJfoZUQ2CKoHn-63" edge="1">
          <mxGeometry relative="1" as="geometry">
            <mxPoint x="660" y="495" as="sourcePoint" />
            <mxPoint x="710" y="620" as="targetPoint" />
          </mxGeometry>
        </mxCell>
        <mxCell id="DlfPbESAJfoZUQ2CKoHn-63" value="&lt;span style=&quot;font-size: 10px;&quot;&gt;u-i特征→&lt;br&gt;u-e;u-l特征&lt;/span&gt;" style="text;html=1;align=center;verticalAlign=middle;resizable=0;points=[];autosize=1;strokeColor=none;fillColor=none;" parent="1" vertex="1">
          <mxGeometry x="675" y="580" width="70" height="40" as="geometry" />
        </mxCell>
        <mxCell id="DlfPbESAJfoZUQ2CKoHn-67" value="" style="edgeStyle=orthogonalEdgeStyle;rounded=0;orthogonalLoop=1;jettySize=auto;html=1;entryX=0;entryY=0.5;entryDx=0;entryDy=0;" parent="1" source="DlfPbESAJfoZUQ2CKoHn-11" target="DlfPbESAJfoZUQ2CKoHn-66" edge="1">
          <mxGeometry relative="1" as="geometry">
            <mxPoint x="413" y="595" as="sourcePoint" />
            <mxPoint x="590" y="505" as="targetPoint" />
          </mxGeometry>
        </mxCell>
        <mxCell id="DlfPbESAJfoZUQ2CKoHn-66" value="&lt;font style=&quot;font-size: 10px;&quot;&gt;spark离线计算&lt;/font&gt;" style="text;html=1;align=center;verticalAlign=middle;resizable=0;points=[];autosize=1;strokeColor=none;fillColor=none;" parent="1" vertex="1">
          <mxGeometry x="440" y="510" width="90" height="30" as="geometry" />
        </mxCell>
        <mxCell id="-K61Xz11RYhruXV_-d4R-2" value="spark离线计算召回" style="rounded=1;whiteSpace=wrap;html=1;arcSize=50;" vertex="1" parent="1">
          <mxGeometry x="410" y="800" width="90" height="50" as="geometry" />
        </mxCell>
        <mxCell id="-K61Xz11RYhruXV_-d4R-3" value="Flink实时计算召回" style="rounded=1;whiteSpace=wrap;html=1;arcSize=50;" vertex="1" parent="1">
          <mxGeometry x="530" y="800" width="80" height="50" as="geometry" />
        </mxCell>
        <mxCell id="Lxm-kY-Rxsiu6XCb0hfM-3" value="" style="edgeStyle=orthogonalEdgeStyle;rounded=0;orthogonalLoop=1;jettySize=auto;html=1;" edge="1" parent="1" source="DlfPbESAJfoZUQ2CKoHn-40" target="Lxm-kY-Rxsiu6XCb0hfM-2">
          <mxGeometry relative="1" as="geometry">
            <mxPoint x="358" y="540" as="sourcePoint" />
            <mxPoint x="358" y="705" as="targetPoint" />
          </mxGeometry>
        </mxCell>
        <mxCell id="Lxm-kY-Rxsiu6XCb0hfM-4" style="edgeStyle=orthogonalEdgeStyle;rounded=0;orthogonalLoop=1;jettySize=auto;html=1;strokeWidth=2;" edge="1" parent="1" source="Lxm-kY-Rxsiu6XCb0hfM-2" target="-K61Xz11RYhruXV_-d4R-3">
          <mxGeometry relative="1" as="geometry">
            <Array as="points">
              <mxPoint x="380" y="670" />
              <mxPoint x="430" y="670" />
              <mxPoint x="430" y="770" />
              <mxPoint x="570" y="770" />
            </Array>
          </mxGeometry>
        </mxCell>
        <mxCell id="Lxm-kY-Rxsiu6XCb0hfM-2" value="3天日志存入ELK" style="shape=parallelogram;perimeter=parallelogramPerimeter;whiteSpace=wrap;html=1;fixedSize=1;" vertex="1" parent="1">
          <mxGeometry x="292.5" y="600" width="130" height="30" as="geometry" />
        </mxCell>
      </root>
    </mxGraphModel>
  </diagram>
</mxfile>
